<?xml version="1.0" standalone="no"?>
<!DOCTYPE svg PUBLIC "-//W3C//DTD SVG 20010904//EN"
 "http://www.w3.org/TR/2001/REC-SVG-20010904/DTD/svg10.dtd">
<svg version="1.0" xmlns="http://www.w3.org/2000/svg"
 width="696.000000pt" height="696.000000pt" viewBox="0 0 696.000000 696.000000"
 preserveAspectRatio="xMidYMid meet">
<metadata>
Created by potrace 1.14, written by Peter Selinger 2001-2017
</metadata>
<g transform="translate(0.000000,696.000000) scale(0.100000,-0.100000)"
fill="#000000" stroke="none">
<path d="M3000 6957 c-3 -3 -27 -8 -55 -11 -27 -4 -84 -13 -125 -21 -41 -8
-86 -17 -100 -19 -217 -41 -560 -161 -786 -273 -375 -187 -641 -379 -939 -678
-502 -503 -840 -1150 -964 -1847 -12 -64 -21 -119 -21 -121 0 -2 218 -4 485
-4 l485 0 10 36 c5 20 19 74 30 121 86 351 290 744 528 1020 83 96 245 253
336 327 183 147 454 305 656 383 47 18 94 36 105 41 22 9 151 49 175 54 8 2
42 10 76 19 33 8 71 17 85 19 l24 4 3 242 c3 305 -1 714 -8 708z"/>
<path d="M3954 6479 c1 -411 3 -472 16 -475 8 -1 47 -9 85 -19 39 -9 78 -18
87 -20 9 -2 77 -24 150 -48 381 -128 695 -322 978 -607 260 -260 438 -528 569
-857 38 -97 97 -278 107 -333 3 -14 11 -52 19 -86 8 -34 17 -83 21 -110 3 -27
8 -58 10 -69 18 -91 25 -419 11 -580 -29 -350 -158 -740 -349 -1059 -43 -72
-78 -132 -78 -135 0 -4 152 -158 338 -344 l338 -338 60 83 c196 271 348 570
458 901 42 127 98 338 110 417 3 19 8 46 11 60 2 13 7 42 10 65 3 22 8 47 10
55 2 8 7 44 10 80 4 36 10 94 15 130 9 70 6 625 -3 675 -3 17 -8 50 -11 75
-30 271 -103 564 -211 845 -74 193 -225 483 -339 649 -25 37 -46 71 -46 76 0
4 -3 10 -7 12 -5 2 -35 39 -67 83 -65 87 -75 98 -187 224 -297 333 -678 620
-1074 810 -154 74 -413 174 -535 207 -211 56 -358 88 -461 100 l-47 6 2 -473z"/>
<path d="M31 2983 c5 -32 11 -69 14 -83 3 -14 10 -52 16 -85 36 -203 137 -527
226 -725 222 -495 512 -884 937 -1259 161 -141 467 -343 691 -456 174 -88 453
-200 575 -231 8 -2 31 -8 50 -13 108 -31 230 -58 335 -76 135 -24 148 -25 315
-44 79 -9 583 -7 635 3 17 3 73 10 125 16 52 7 140 21 195 32 55 11 112 22
127 25 25 4 94 23 263 72 202 58 488 184 735 322 72 40 360 232 360 240 0 12
-703 694 -712 691 -6 -1 -36 -20 -67 -41 -66 -44 -70 -47 -228 -127 -173 -89
-425 -180 -573 -209 -236 -46 -347 -58 -540 -59 -124 0 -293 9 -351 19 -13 2
-55 9 -94 15 -161 25 -375 87 -544 156 -312 129 -574 306 -822 553 -300 301
-497 625 -629 1036 -17 55 -34 108 -36 118 -6 24 -12 54 -25 115 l-10 52 -488
0 -488 0 8 -57z"/>
</g>
</svg>
