<svg width="20" height="21" viewBox="0 0 20 21" fill="none" xmlns="http://www.w3.org/2000/svg">
<path d="M14.0183 13.6371L11.2583 15.1191V20.2686C14.1292 19.9482 16.6884 18.337 18.2726 15.9218C17.3715 15.4379 15.6853 14.5322 14.0183 13.6371Z" fill="#64748B"/>
<path d="M1.15786 6.73014C0.229282 9.08163 0.223425 11.7513 1.15786 14.1151C3.89673 12.6444 3.48094 12.8675 5.27316 11.905V8.94018C2.11296 7.24342 3.15113 7.80088 1.15786 6.73014Z" fill="#64748B"/>
<path d="M2.09375 4.92341C4.07354 5.9863 3.63936 5.75304 6.34806 7.20815L9.1081 5.72608V0.576572C6.3281 0.887354 3.72232 2.43581 2.09375 4.92341Z" fill="#64748B"/>
<path d="M6.34802 13.6371C3.49256 15.1705 4.48136 14.6394 2.09302 15.9224C3.64279 18.2851 6.1789 19.9417 9.10806 20.2686V15.1191L6.34802 13.6371Z" fill="#64748B"/>
<path d="M10.1829 7.45818L7.42285 8.94025V11.905L10.1829 13.387L12.9429 11.905V8.94025L10.1829 7.45818Z" fill="#64748B"/>
<path d="M11.2576 0.576572V5.72608L14.0176 7.20815C16.3295 5.96632 15.5851 6.3661 18.2712 4.92341C16.7198 2.55106 14.1719 0.902354 11.2576 0.576572Z" fill="#64748B"/>
<path d="M19.2095 6.73015C16.8555 7.99466 18.291 7.22386 15.0942 8.94025V11.905C16.3614 12.5856 16.6118 12.7202 19.2095 14.1151C20.1468 11.744 20.1347 9.07302 19.2095 6.73015Z" fill="#64748B"/>
</svg>
